{"title":"From.Vegas.to.Macau.II.2015.DVDRip.x264.AC3.RoSubbed-playSD","uid":12128839,"size":1095901807,"categoryP":"video","categoryS":"movies","magnet":"?xt=urn:btih:cfe8ec80265e13d6bc0244796b90eb348abb2633&amp;dn=From.Vegas.to.Macau.II.2015.DVDRip.x264.AC3.RoSubbed-playSD&amp;tr=udp%3A%2F%2Ftracker.openbittorrent.com%3A80&amp;tr=udp%3A%2F%2Fopen.demonii.com%3A1337&amp;tr=udp%3A%2F%2Ftracker.coppersurfer.tk%3A6969&amp;tr=udp%3A%2F%2Fexodus.desync.com%3A6969","seeders":0,"leechers":0,"uploader":"TvTeam","files":5,"time":1436987079,"description":"------------------------------------------------------------------------\n\n &lt;a href=&quot; https://www.torrenting.com&quot; rel=&quot;nofollow&quot; target=&quot;_NEW&quot;&gt; https://www.torrenting.com&lt;/a&gt;\n\nSign up is OPEN - for time being. Come and have fun.\n\n------------------------------------------------------------------------General\nUnique ID                                : 209226738155035060383491277816347047684 (0x9D679AA0EB31D4228E503147C8813704)\nComplete name                            : F:TorentFrom.Vegas.to.Macau.II.2015.DVDRip.x264.AC3.RoSubbed-playSDFrom.Vegas.to.Macau.II.2015.DVDRip.x264.AC3.RoSubbed-playSD.mkv\nFormat                                   : Matroska\nFormat version                           : Version 2\nFile size                                : 1.01 GiB\nDuration                                 : 1h 50mn\nOverall bit rate                         : 1 307 Kbps\nEncoded date                             : UTC 2015-07-13 12:34:38\nWriting application                      : mkvmerge v7.0.0 ('Where We Going') 32bit built on Jun  9 2014 15:08:34\nWriting library                          : libebml v1.3.0 + libmatroska v1.4.1\n_STATISTICS_WRITING_APP                  : mkvmerge v7.0.0 ('Where We Going') 32bit built on Jun  9 2014 15:08:34\n_STATISTICS_WRITING_DATE_UTC             : 2015-07-13 12:34:38\n_STATISTICS_TAGS                         : BPS DURATION NUMBER_OF_FRAMES NUMBER_OF_BYTES\nDURATION                                 : 01:50:14.464000000\nNUMBER_OF_FRAMES                         : 206702\nNUMBER_OF_BYTES                          : 317494272\n\nVideo\nID                                       : 1\nFormat                                   : AVC\nFormat/Info                              : Advanced Video Codec\nFormat profile                           : High@L3\nFormat settings, CABAC                   : Yes\nFormat settings, ReFrames                : 4 frames\nCodec ID                                 : V_MPEG4/ISO/AVC\nDuration                                 : 1h 50mn\nBit rate                                 : 897 Kbps\nWidth                                    : 720 pixels\nHeight                                   : 306 pixels\nDisplay aspect ratio                     : 2.35:1\nFrame rate mode                          : Constant\nFrame rate                               : 23.976 fps\nColor space                              : YUV\nChroma subsampling                       : 4:2:0\nBit depth                                : 8 bits\nScan type                                : Progressive\nBits/(Pixel*Frame)                       : 0.170\nStream size                              : 707 MiB (69%)\nWriting library                          : x264 core 125 r2200 999b753\nEncoding settings                        : cabac=1 / ref=5 / deblock=1:-3:-3 / analyse=0x3:0x113 / me=umh / subme=8 / psy=1 / psy_rd=0.00:0.00 / mixed_ref=1 / me_range=16 / chroma_me=1 / trellis=2 / 8x8dct=1 / cqm=0 / deadzone=21,11 / fast_pskip=1 / chroma_qp_offset=0 / threads=6 / lookahead_threads=1 / sliced_threads=0 / nr=0 / decimate=1 / interlaced=0 / bluray_compat=0 / constrained_intra=0 / bframes=5 / b_pyramid=1 / b_adapt=2 / b_bias=0 / direct=3 / weightb=1 / open_gop=0 / weightp=2 / keyint=240 / keyint_min=23 / scenecut=40 / intra_refresh=0 / rc_lookahead=50 / rc=crf / mbtree=1 / crf=19.0 / qcomp=0.60 / qpmin=0 / qpmax=69 / qpstep=4 / ip_ratio=1.40 / aq=1:1.00\nDefault                                  : Yes\nForced                                   : No\n\nAudio\nID                                       : 2\nFormat                                   : AC-3\nFormat/Info                              : Audio Coding 3\nMode extension                           : CM (complete main)\nFormat settings, Endianness              : Big\nCodec ID                                 : A_AC3\nDuration                                 : 1h 50mn\nBit rate mode                            : Constant\nBit rate                                 : 384 Kbps\nChannel(s)                               : 6 channels\nChannel positions                        : Front: L C R, Side: L R, LFE\nSampling rate                            : 48.0 KHz\nCompression mode                         : Lossy\nStream size                              : 303 MiB (29%)\nDefault                                  : Yes\nForced                                   : No","torrent":{"xt":"urn:btih:cfe8ec80265e13d6bc0244796b90eb348abb2633","amp;dn":"From.Vegas.to.Macau.II.2015.DVDRip.x264.AC3.RoSubbed-playSD","amp;tr":["udp%3A%2F%2Ftracker.openbittorrent.com%3A80","udp%3A%2F%2Fopen.demonii.com%3A1337","udp%3A%2F%2Ftracker.coppersurfer.tk%3A6969","udp%3A%2F%2Fexodus.desync.com%3A6969"],"infoHash":"cfe8ec80265e13d6bc0244796b90eb348abb2633","infoHashBuffer":{"type":"Buffer","data":[207,232,236,128,38,94,19,214,188,2,68,121,107,144,235,52,138,187,38,51]},"announce":[],"urlList":[]}}